<svg width="654" height="534" viewBox="0 0 654 534" fill="none" xmlns="http://www.w3.org/2000/svg">
<path d="M44.5367 1.63028C33.6034 4.03028 26.2701 7.89695 17.7367 15.8969C9.60341 23.7636 5.20341 30.8303 2.13674 40.8303C0.270075 47.3636 0.00340828 66.5636 0.00340828 227.63C0.00340828 423.63 -0.396592 413.63 7.47008 427.097C11.6034 434.03 23.2034 445.23 30.1367 448.697C42.8034 455.097 34.0034 454.83 239.07 455.63L432.27 456.297L435.603 464.297C440.67 476.297 452.137 492.964 461.737 501.897C513.737 550.43 595.07 541.23 634.537 482.297C647.337 463.097 653.337 443.23 653.337 419.497C653.337 390.03 642.67 363.23 622.27 341.364C614.27 332.83 596.67 320.164 587.603 316.297L582.67 314.297L582.403 179.23L582.003 44.2969L578.803 36.5636C572.937 21.7636 559.737 8.96361 544.403 3.23028L536.67 0.296945L294.67 0.0302782C96.9368 -0.103055 51.2034 0.163612 44.5367 1.63028ZM541.603 33.6303C544.67 35.8969 548.803 40.4303 550.67 43.6303L554.003 49.6303L554.403 177.897L554.67 306.297H540.937C533.337 306.297 523.603 306.964 519.337 307.764C497.47 311.764 472.937 325.23 457.737 341.364C438.003 362.564 426.803 389.497 426.67 415.897V426.297H238.403C57.8701 426.297 49.7367 426.164 44.6701 423.764C32.5367 418.164 28.0034 409.23 28.1367 391.364V378.964L86.6701 326.297C118.803 297.364 147.737 271.63 150.67 269.364C154.803 266.03 157.603 264.964 161.47 264.964C166.403 264.964 168.937 266.964 206.137 299.497C227.737 318.564 248.27 335.497 251.47 337.097C263.737 342.964 282.67 341.497 293.07 333.897C295.47 332.03 320.937 309.097 349.603 282.83C378.27 256.43 403.07 234.297 404.537 233.364C408.937 230.83 415.337 231.364 419.47 234.564C421.603 236.297 436.537 249.23 452.67 263.63C496.27 302.297 491.47 298.697 498.27 297.897C505.07 297.23 507.737 295.23 510.27 289.23C513.87 280.43 512.27 278.564 472.27 242.964C452.003 224.964 432.67 208.964 429.337 207.364C417.203 201.364 397.47 202.964 387.07 210.697C384.803 212.297 359.47 235.23 330.803 261.63C302.003 288.03 276.67 310.43 274.403 311.364C272.137 312.297 268.67 312.697 266.537 312.297C264.137 311.764 248.803 299.097 225.737 278.697C205.337 260.83 186.403 244.564 183.603 242.83C176.403 238.164 164.67 235.364 156.67 236.43C142.803 238.164 140.003 240.297 83.0701 291.63L28.6701 340.697L28.2701 196.43C27.8701 37.2303 27.4701 45.7636 36.4034 37.3636C45.8701 28.2969 23.2034 28.9636 292.27 29.3636L535.737 29.6303L541.603 33.6303ZM558.003 336.297C586.803 342.297 612.537 366.03 621.737 394.964C625.87 408.164 625.87 431.097 621.737 444.297C613.337 470.83 591.203 492.964 564.67 501.364C557.07 503.764 552.27 504.297 539.337 504.297C525.47 504.164 522.003 503.63 513.603 500.697C499.603 495.63 490.137 489.63 479.337 478.964C453.603 453.364 447.47 414.43 464.003 381.497C481.603 346.564 519.603 328.297 558.003 336.297Z" fill="#040404"/>
<path d="M210.67 80.6969C168.937 91.6302 150.004 141.497 174.004 177.497C188.937 200.03 216.537 210.83 242.004 204.297C271.47 196.697 290.67 172.164 290.67 142.297C290.67 100.164 251.604 70.0302 210.67 80.6969ZM241.204 109.764C247.337 112.297 255.47 120.164 259.07 126.964C261.337 131.097 262.004 134.564 262.004 142.297C262.004 153.897 259.337 159.897 251.07 167.897C238.404 180.164 219.604 180.964 205.204 169.897C192.137 160.03 188.004 140.83 195.737 126.297C204.404 109.63 223.87 102.564 241.204 109.764Z" fill="#040404"/>
<path d="M533.737 364.43C527.07 367.763 525.337 373.097 525.337 390.163V404.963H510.537C493.337 404.963 488.004 406.697 484.804 413.63C482.137 419.097 482.137 420.163 484.804 425.63C488.004 432.563 493.337 434.297 510.537 434.297H525.337V449.097C525.337 466.297 527.07 471.63 534.004 474.83C539.47 477.497 540.537 477.497 546.004 474.83C552.937 471.63 554.67 466.297 554.67 449.097V434.297H569.47C586.67 434.297 592.004 432.563 595.204 425.63C596.404 423.23 597.337 420.563 597.337 419.63C597.337 418.697 596.404 416.03 595.204 413.63C592.004 406.697 586.67 404.963 569.47 404.963H554.67V390.163C554.67 372.963 552.937 367.63 546.004 364.43C540.537 361.763 539.07 361.763 533.737 364.43Z" fill="#040404"/>
</svg>
