<svg width="53" height="52" viewBox="0 0 53 52" fill="none" xmlns="http://www.w3.org/2000/svg">
<rect x="0.5" width="52" height="52" rx="26" fill="#FFD9D9"/>
<g clip-path="url(#clip0_328_753)">
<path d="M26.5 30.8125C26.296 30.8125 26.0967 30.873 25.9271 30.9863C25.7575 31.0996 25.6253 31.2607 25.5472 31.4491C25.4692 31.6375 25.4488 31.8449 25.4886 32.0449C25.5284 32.245 25.6266 32.4287 25.7708 32.573C25.915 32.7172 26.0988 32.8154 26.2988 32.8552C26.4989 32.895 26.7062 32.8746 26.8946 32.7965C27.0831 32.7184 27.2441 32.5863 27.3575 32.4167C27.4708 32.2471 27.5313 32.0477 27.5313 31.8438C27.5313 31.5702 27.4226 31.3079 27.2292 31.1145C27.0358 30.9211 26.7735 30.8125 26.5 30.8125Z" fill="#C71100"/>
<path d="M27.1875 23.25H25.8125V29.4375H27.1875V23.25Z" fill="#C71100"/>
<path d="M35.4375 35.625H17.5625C17.4444 35.625 17.3283 35.5946 17.2253 35.5367C17.1224 35.4787 17.0361 35.3953 16.9748 35.2943C16.9135 35.1933 16.8793 35.0783 16.8754 34.9602C16.8715 34.8422 16.8981 34.7251 16.9526 34.6203L25.8901 17.4328C25.9481 17.3212 26.0357 17.2276 26.1432 17.1623C26.2508 17.097 26.3742 17.0625 26.5 17.0625C26.6258 17.0625 26.7492 17.097 26.8568 17.1623C26.9643 17.2276 27.0519 17.3212 27.11 17.4328L36.0475 34.6203C36.102 34.7251 36.1285 34.8422 36.1246 34.9602C36.1207 35.0783 36.0865 35.1933 36.0252 35.2943C35.9639 35.3953 35.8776 35.4787 35.7747 35.5367C35.6717 35.5946 35.5556 35.625 35.4375 35.625ZM18.6974 34.25H34.3026L34.304 34.2477L26.5014 19.2428H26.4986L18.696 34.2477L18.6974 34.25Z" fill="#C71100"/>
</g>
<defs>
<clipPath id="clip0_328_753">
<rect width="22" height="22" fill="white" transform="translate(15.5 15)"/>
</clipPath>
</defs>
</svg>
