<svg width="32" height="32" viewBox="0 0 32 32" fill="none" xmlns="http://www.w3.org/2000/svg">
<g clip-path="url(#clip0_1053_68)">
<path d="M28 2H16C15.4697 2.00053 14.9613 2.21141 14.5864 2.58637C14.2114 2.96133 14.0005 3.46973 14 4V14H4C3.46973 14.0005 2.96133 14.2114 2.58637 14.5864C2.21141 14.9613 2.00053 15.4697 2 16V30H30V4C29.9994 3.46975 29.7885 2.9614 29.4135 2.58646C29.0386 2.21152 28.5302 2.00061 28 2ZM9 28V21H13V28H9ZM28 28H15V20C15 19.7348 14.8946 19.4804 14.7071 19.2929C14.5196 19.1054 14.2652 19 14 19H8C7.73478 19 7.48043 19.1054 7.29289 19.2929C7.10536 19.4804 7 19.7348 7 20V28H4V16H16V4H28V28Z" fill="white"/>
<path d="M20 8H18V10H20V8Z" fill="white"/>
<path d="M26 8H24V10H26V8Z" fill="white"/>
<path d="M20 14H18V16H20V14Z" fill="white"/>
<path d="M26 14H24V16H26V14Z" fill="white"/>
<path d="M20 19.9996H18V21.9996H20V19.9996Z" fill="white"/>
<path d="M26 19.9996H24V21.9996H26V19.9996Z" fill="white"/>
<path d="M7 10.0002H2V11.9997H7V10.0002Z" fill="white"/>
<path d="M12 2H10V7H12V2Z" fill="white"/>
<path d="M5.41407 3.99999L4 5.41406L7.58595 9.00001L9.00002 7.58594L5.41407 3.99999Z" fill="white"/>
</g>
<defs>
<clipPath id="clip0_1053_68">
<rect width="32" height="32" fill="white"/>
</clipPath>
</defs>
</svg>
