<svg width="29" height="29" viewBox="0 0 29 29" fill="none" xmlns="http://www.w3.org/2000/svg">
<g clip-path="url(#clip0_891_65)">
<path d="M13.9052 0.0792732C13.2198 0.249195 12.5911 0.736305 12.2853 1.33103L12.0927 1.6992H11.4866C11.1524 1.6992 10.7446 1.72752 10.5804 1.7615C9.87236 1.91443 9.204 2.41287 8.88682 3.03025L8.69424 3.39841H7.27256C6.49092 3.39841 5.71494 3.42673 5.54502 3.45506C4.52549 3.64763 3.7042 4.46892 3.51162 5.48845C3.43232 5.90759 3.43232 26.4908 3.51162 26.9099C3.7042 27.9295 4.52549 28.7508 5.54502 28.9433C5.96416 29.0226 23.0356 29.0226 23.4548 28.9433C24.4743 28.7508 25.2956 27.9295 25.4882 26.9099C25.5675 26.4908 25.5675 5.90759 25.4882 5.48845C25.2956 4.46892 24.4743 3.64763 23.4548 3.45506C23.2849 3.42673 22.5089 3.39841 21.7272 3.39841H20.3056L20.113 3.03025C19.7958 2.41287 19.1274 1.91443 18.4194 1.7615C18.2552 1.72752 17.8474 1.6992 17.5132 1.6992H16.9071L16.7146 1.33103C16.2104 0.351149 14.9983 -0.1926 13.9052 0.0792732ZM14.8964 1.81248C15.1513 1.94275 15.3495 2.2656 15.3495 2.54881C15.3495 2.83201 15.5478 3.15486 15.8026 3.28513C16.0009 3.38709 16.1368 3.39841 17.0487 3.39841C17.9606 3.39841 18.0966 3.40974 18.2948 3.5117C18.6347 3.68728 18.7479 3.95349 18.7479 4.58787V5.09763H14.4999H10.2519V4.58787C10.2519 3.95349 10.3651 3.68728 10.705 3.5117C10.9032 3.40974 11.0392 3.39841 11.9511 3.39841C12.863 3.39841 12.9989 3.38709 13.1972 3.28513C13.4521 3.15486 13.6503 2.83201 13.6503 2.54881C13.6503 2.27693 13.8485 1.94275 14.0921 1.81814C14.364 1.67088 14.6188 1.67088 14.8964 1.81248ZM8.55264 5.6074C8.55264 6.24177 8.66592 6.50798 9.00576 6.68357C9.221 6.79685 9.32861 6.79685 14.4999 6.79685C19.6712 6.79685 19.7788 6.79685 19.994 6.68357C20.3339 6.50798 20.4472 6.24177 20.4472 5.6074V5.09763H21.8065C23.064 5.09763 23.1886 5.10896 23.3925 5.21091C23.5397 5.28455 23.6587 5.40349 23.7323 5.55076C23.8456 5.77166 23.8456 5.86228 23.8456 16.1992C23.8456 26.5361 23.8456 26.6267 23.7323 26.8476C23.6587 26.9949 23.5397 27.1138 23.3925 27.1875C23.1716 27.3008 23.0753 27.3008 14.4999 27.3008C5.92451 27.3008 5.82822 27.3008 5.60732 27.1875C5.46006 27.1138 5.34111 26.9949 5.26748 26.8476C5.1542 26.6267 5.1542 26.5361 5.1542 16.1992C5.1542 5.86794 5.1542 5.77166 5.26748 5.55076C5.48271 5.13162 5.60732 5.1033 7.18193 5.09763H8.55264V5.6074Z" fill="white"/>
<path d="M12.4043 8.72828C12.2967 8.79059 11.5773 9.47594 10.807 10.2406L9.40801 11.6339L8.82461 11.0675C8.20156 10.4558 7.98633 10.3086 7.69746 10.3086C7.28965 10.3086 6.85352 10.7447 6.85352 11.1525C6.85352 11.4584 7.00645 11.6623 7.86738 12.5402C9.06816 13.7636 9.32305 13.8882 9.86113 13.5427C10.184 13.3332 13.4408 10.0537 13.5598 9.81578C13.7523 9.43063 13.5938 8.94918 13.1973 8.72828C12.9254 8.57535 12.6592 8.57535 12.4043 8.72828Z" fill="white"/>
<path d="M15.7914 10.4275C15.5479 10.5521 15.3496 10.8863 15.3496 11.1582C15.3496 11.4414 15.5479 11.7643 15.8027 11.8945C16.018 12.0021 16.1313 12.0078 18.748 12.0078C21.3648 12.0078 21.4781 12.0021 21.6934 11.8945C21.9482 11.7643 22.1465 11.4414 22.1465 11.1582C22.1465 10.875 21.9482 10.5521 21.6934 10.4219C21.4781 10.3143 21.3705 10.3086 18.7367 10.3086C16.1256 10.3143 15.9896 10.3199 15.7914 10.4275Z" fill="white"/>
<path d="M12.4043 14.6755C12.2967 14.7379 11.5773 15.4232 10.807 16.1879L9.40801 17.5812L8.82461 17.0148C8.20156 16.4031 7.98633 16.2558 7.69746 16.2558C7.28965 16.2558 6.85352 16.692 6.85352 17.0998C6.85352 17.4056 7.00645 17.6095 7.86738 18.4875C9.06816 19.7109 9.32305 19.8355 9.86113 19.49C10.184 19.2804 13.4408 16.0009 13.5598 15.763C13.7523 15.3779 13.5938 14.8964 13.1973 14.6755C12.9254 14.5226 12.6592 14.5226 12.4043 14.6755Z" fill="white"/>
<path d="M15.7914 16.3748C15.5479 16.4994 15.3496 16.8336 15.3496 17.1055C15.3496 17.3887 15.5479 17.7115 15.8027 17.8418C16.018 17.9494 16.1313 17.9551 18.748 17.9551C21.3648 17.9551 21.4781 17.9494 21.6934 17.8418C21.9482 17.7115 22.1465 17.3887 22.1465 17.1055C22.1465 16.8223 21.9482 16.4994 21.6934 16.3691C21.4781 16.2615 21.3705 16.2559 18.7367 16.2559C16.1256 16.2615 15.9896 16.2672 15.7914 16.3748Z" fill="white"/>
<path d="M12.4043 20.6228C12.2967 20.6851 11.5773 21.3705 10.807 22.1351L9.40801 23.5285L8.82461 22.9621C8.20156 22.3504 7.98633 22.2031 7.69746 22.2031C7.28965 22.2031 6.85352 22.6392 6.85352 23.047C6.85352 23.3529 7.00645 23.5568 7.86738 24.4347C9.06816 25.6582 9.32305 25.7828 9.86113 25.4373C10.184 25.2277 13.4408 21.9482 13.5598 21.7103C13.7523 21.3252 13.5938 20.8437 13.1973 20.6228C12.9254 20.4699 12.6592 20.4699 12.4043 20.6228Z" fill="white"/>
<path d="M15.7914 22.3221C15.5479 22.4467 15.3496 22.7809 15.3496 23.0527C15.3496 23.3359 15.5479 23.6588 15.8027 23.7891C16.018 23.8967 16.1313 23.9023 18.748 23.9023C21.3648 23.9023 21.4781 23.8967 21.6934 23.7891C21.9482 23.6588 22.1465 23.3359 22.1465 23.0527C22.1465 22.7695 21.9482 22.4467 21.6934 22.3164C21.4781 22.2088 21.3705 22.2031 18.7367 22.2031C16.1256 22.2088 15.9896 22.2145 15.7914 22.3221Z" fill="white"/>
</g>
<defs>
<clipPath id="clip0_891_65">
<rect width="29" height="29" fill="white"/>
</clipPath>
</defs>
</svg>
