<svg width="107" height="107" viewBox="0 0 107 107" fill="none" xmlns="http://www.w3.org/2000/svg">
<path d="M100.312 100.312H93.625V93.625C93.625 91.7816 92.1263 90.2812 90.2812 90.2812H70.2188C68.3737 90.2812 66.875 91.7816 66.875 93.625V100.312H60.1875V93.625C60.1875 88.0934 64.6872 83.5938 70.2188 83.5938H90.2812C95.8128 83.5938 100.312 88.0934 100.312 93.625V100.312Z" fill="url(#paint0_linear_806_956)"/>
<path d="M80.25 80.25C72.8734 80.25 66.875 74.25 66.875 66.875C66.875 59.5 72.8734 53.5 80.25 53.5C87.6266 53.5 93.625 59.5 93.625 66.875C93.625 74.25 87.6266 80.25 80.25 80.25ZM80.25 60.1875C76.5635 60.1875 73.5625 63.1868 73.5625 66.875C73.5625 70.5632 76.5635 73.5625 80.25 73.5625C83.9365 73.5625 86.9375 70.5632 86.9375 66.875C86.9375 63.1868 83.9365 60.1875 80.25 60.1875Z" fill="url(#paint1_linear_806_956)"/>
<path d="M33.4375 66.875H26.75V73.5625H33.4375V66.875Z" fill="url(#paint2_linear_806_956)"/>
<path d="M60.1875 66.875H40.125V73.5625H60.1875V66.875Z" fill="url(#paint3_linear_806_956)"/>
<path d="M33.4375 53.5H26.75V60.1875H33.4375V53.5Z" fill="url(#paint4_linear_806_956)"/>
<path d="M60.1875 53.5H40.125V60.1875H60.1875V53.5Z" fill="url(#paint5_linear_806_956)"/>
<path d="M33.4375 40.125H26.75V46.8125H33.4375V40.125Z" fill="url(#paint6_linear_806_956)"/>
<path d="M60.1875 40.125H40.125V46.8125H60.1875V40.125Z" fill="url(#paint7_linear_806_956)"/>
<path d="M70.2188 16.7188H60.1875V13.375C60.1875 9.68684 57.1865 6.6875 53.5 6.6875H33.4375C29.751 6.6875 26.75 9.68684 26.75 13.375V16.7188H16.7188C13.0323 16.7188 10.0312 19.7181 10.0312 23.4062V86.9375C10.0312 90.6257 13.0323 93.625 16.7188 93.625H46.8125V86.9375H16.7188V23.4062H26.75V30.0938H60.1875V23.4062H70.2188V46.8122H76.9062V23.4062C76.9062 19.7181 73.9052 16.7188 70.2188 16.7188ZM53.5 23.4062H33.4375V13.375H53.5V23.4062Z" fill="url(#paint8_linear_806_956)"/>
<defs>
<linearGradient id="paint0_linear_806_956" x1="103.997" y1="91.9531" x2="60.5969" y2="91.9531" gradientUnits="userSpaceOnUse">
<stop stop-color="#EDC245"/>
<stop offset="1" stop-color="#CB8642"/>
</linearGradient>
<linearGradient id="paint1_linear_806_956" x1="96.0816" y1="66.875" x2="67.148" y2="66.875" gradientUnits="userSpaceOnUse">
<stop stop-color="#EDC245"/>
<stop offset="1" stop-color="#CB8642"/>
</linearGradient>
<linearGradient id="paint2_linear_806_956" x1="34.0517" y1="70.2188" x2="26.8182" y2="70.2188" gradientUnits="userSpaceOnUse">
<stop stop-color="#EDC245"/>
<stop offset="1" stop-color="#CB8642"/>
</linearGradient>
<linearGradient id="paint3_linear_806_956" x1="62.03" y1="70.2188" x2="40.3297" y2="70.2188" gradientUnits="userSpaceOnUse">
<stop stop-color="#EDC245"/>
<stop offset="1" stop-color="#CB8642"/>
</linearGradient>
<linearGradient id="paint4_linear_806_956" x1="34.0517" y1="56.8438" x2="26.8182" y2="56.8438" gradientUnits="userSpaceOnUse">
<stop stop-color="#EDC245"/>
<stop offset="1" stop-color="#CB8642"/>
</linearGradient>
<linearGradient id="paint5_linear_806_956" x1="62.03" y1="56.8438" x2="40.3297" y2="56.8438" gradientUnits="userSpaceOnUse">
<stop stop-color="#EDC245"/>
<stop offset="1" stop-color="#CB8642"/>
</linearGradient>
<linearGradient id="paint6_linear_806_956" x1="34.0517" y1="43.4688" x2="26.8182" y2="43.4688" gradientUnits="userSpaceOnUse">
<stop stop-color="#EDC245"/>
<stop offset="1" stop-color="#CB8642"/>
</linearGradient>
<linearGradient id="paint7_linear_806_956" x1="62.03" y1="43.4688" x2="40.3297" y2="43.4688" gradientUnits="userSpaceOnUse">
<stop stop-color="#EDC245"/>
<stop offset="1" stop-color="#CB8642"/>
</linearGradient>
<linearGradient id="paint8_linear_806_956" x1="83.0478" y1="50.1563" x2="10.7136" y2="50.1563" gradientUnits="userSpaceOnUse">
<stop stop-color="#EDC245"/>
<stop offset="1" stop-color="#CB8642"/>
</linearGradient>
</defs>
</svg>
