<svg width="24" height="24" viewBox="0 0 24 24" fill="none" xmlns="http://www.w3.org/2000/svg">
<path d="M11.1259 0H12.7867L13.0614 0.0124935L13.3486 0.0499742L13.5484 0.0999484L13.8606 0.224884L14.1103 0.362313L14.3476 0.537222L14.4974 0.674651L14.6223 0.799587L14.7222 0.924522L14.847 1.09943L15.0219 1.43676L15.1093 1.68663L15.1717 1.94899L15.1967 2.1364L15.2216 2.54868L15.2591 2.7111L15.334 2.86102L15.4464 2.99845L15.5713 3.08591L15.7086 3.14837L15.8585 3.18585H16.0583L16.2456 3.13588L16.3829 3.06092L16.5203 2.94848L16.6202 2.84853L16.7201 2.76107L16.9448 2.59866L17.1571 2.47372L17.3569 2.38627L17.6191 2.29881L17.8814 2.24884L18.1811 2.22385L18.4558 2.23634L18.7055 2.27383L18.9053 2.3238L19.1675 2.42375L19.4547 2.57367L19.667 2.72359L19.7919 2.83603L19.8918 2.92349L21.153 4.18534L21.2653 4.32277L21.3902 4.48518L21.5151 4.71007L21.59 4.85999L21.6899 5.13485L21.7399 5.34724L21.7773 5.64708V5.94693L21.7274 6.28425L21.6524 6.54662L21.5775 6.74651L21.4776 6.94641L21.3652 7.12132L21.2653 7.25875L21.153 7.38369L21.0656 7.48363L20.9781 7.57109L20.8907 7.70852L20.8408 7.83345L20.8158 7.97088V8.1208L20.8658 8.3207L20.9407 8.47062L21.0531 8.59556L21.1655 8.68301L21.3028 8.74548L21.4776 8.78296L21.9022 8.80795L22.2019 8.85792L22.4142 8.92039L22.6764 9.03283L22.9011 9.15777L23.1384 9.33268L23.2882 9.47011L23.4131 9.59504L23.5505 9.76995L23.6753 9.95736L23.8127 10.2322L23.9001 10.4821L23.9625 10.7444L23.9875 10.9568L24 11.2942V12.4811L23.9875 13.0433L23.9625 13.2557L23.9126 13.4805L23.8252 13.7429L23.6878 14.0303L23.563 14.2177L23.4381 14.3801L23.3007 14.53L23.2133 14.6174L23.0385 14.7549L22.8512 14.8798L22.6139 15.0047L22.3517 15.1047L22.0895 15.1672L21.8148 15.2046L21.4277 15.2296L21.2778 15.2671L21.128 15.3421L21.0031 15.4545L20.9157 15.5795L20.8533 15.7169L20.8158 15.8918V16.0542L20.8658 16.2541L20.9532 16.4165L21.103 16.5789L21.2404 16.7289L21.3902 16.9288L21.5151 17.1536L21.615 17.366L21.6899 17.5909L21.7523 17.9032L21.7773 18.1531V18.303L21.7523 18.5404L21.7149 18.7528L21.64 19.0152L21.5276 19.2775L21.4152 19.4774L21.3028 19.6399L21.2029 19.7648L21.0281 19.9522L19.8543 21.1266L19.7544 21.214L19.6296 21.314L19.4422 21.4389L19.2425 21.5514L18.9927 21.6513L18.768 21.7138L18.5182 21.7638L18.4308 21.7762H17.9688L17.6316 21.7138L17.3319 21.6138L17.0697 21.4889L16.8699 21.364L16.6951 21.2265L16.4953 21.0391L16.3704 20.9392L16.2081 20.8642L16.0333 20.8267H15.8835L15.6961 20.8642L15.5338 20.9517L15.4089 21.0641L15.3215 21.1766L15.2591 21.314L15.2216 21.4889L15.1967 21.8887L15.1467 22.1885L15.0843 22.4009L15.0094 22.6008L14.872 22.8632L14.7721 23.0131L14.6472 23.1755L14.5099 23.3254L14.3476 23.4754L14.1727 23.6003L14.0104 23.7003L13.8106 23.8002L13.6233 23.8752L13.3611 23.9501L13.1363 23.9876L12.9865 24.0001H10.9886L10.7513 23.9751L10.4766 23.9126L10.2393 23.8252L9.97711 23.7003L9.80229 23.5878L9.62747 23.4504L9.47763 23.313L9.39022 23.2255L9.25286 23.0506L9.15297 22.9132L9.04058 22.7133L8.95317 22.5259L8.87825 22.301L8.81582 22.0386L8.79084 21.8012L8.77836 21.5264L8.75338 21.3515L8.69095 21.1891L8.59105 21.0516L8.49115 20.9642L8.30385 20.8642L8.15401 20.8267H7.89178L7.72945 20.8767L7.60458 20.9517L7.47971 21.0641L7.32986 21.2015L7.20499 21.3015L7.04266 21.4139L6.84287 21.5264L6.61811 21.6263L6.3309 21.7138L6.05619 21.7638L5.9563 21.7762H5.5692L5.26951 21.7263L5.00728 21.6513L4.81998 21.5764L4.62019 21.4764L4.4204 21.3515L4.28304 21.239L4.0333 21.0141L2.87201 19.8522L2.7846 19.7523L2.62227 19.5399L2.52237 19.3775L2.42248 19.1776L2.34755 18.9902L2.27263 18.7278L2.22268 18.428V18.0282L2.27263 17.7158L2.34755 17.4535L2.42248 17.2661L2.52237 17.0662L2.62227 16.9038L2.73465 16.7538L2.84703 16.6289L2.93444 16.529L3.04683 16.404L3.13424 16.2541L3.18418 16.0542V15.8918L3.13424 15.6919L3.05931 15.542L2.95942 15.417L2.82206 15.3171L2.6847 15.2546L2.57232 15.2296L2.45994 15.2171L2.14776 15.2046L1.88554 15.1672L1.61082 15.0922L1.36108 14.9923L1.1488 14.8798L0.998959 14.7799L0.824142 14.6424L0.674298 14.505L0.536941 14.3551L0.37461 14.1302L0.262227 13.9303L0.162331 13.7179L0.0874089 13.493L0.037461 13.2681L0.012487 13.0807L0 12.8808V11.1068L0.024974 10.8069L0.074922 10.557L0.174818 10.2572L0.287201 10.0198L0.424558 9.80743L0.536941 9.65751L0.649324 9.53257L0.836628 9.34517L1.06139 9.18276L1.2487 9.07031L1.42352 8.98286L1.66077 8.8954L1.923 8.83294L2.09781 8.80795L2.53486 8.78296L2.73465 8.73299L2.87201 8.65803L2.99688 8.54558L3.0718 8.44564L3.13424 8.3207L3.18418 8.1208V7.97088L3.14672 7.79597L3.04683 7.59608L2.89698 7.43366L2.75963 7.28374L2.59729 7.05885L2.47242 6.84646L2.38502 6.64657L2.29761 6.3842L2.23517 6.05937L2.22268 5.93443V5.64708L2.26015 5.35973L2.33507 5.05989L2.43496 4.81001L2.53486 4.61012L2.64724 4.43521L2.75963 4.28529L2.90947 4.12287L4.17066 2.86102L4.27055 2.77357L4.47034 2.62364L4.63267 2.5237L4.83247 2.42375L5.01977 2.34879L5.282 2.27383L5.51925 2.23634L5.64412 2.22385H5.90635L6.23101 2.26133L6.51821 2.33629L6.74298 2.42375L7.0052 2.56118L7.20499 2.69861L7.34235 2.81105L7.42976 2.8985L7.52966 2.98596L7.64204 3.07341L7.76691 3.13588L7.91675 3.17336L8.05411 3.18585L8.22893 3.16087L8.39126 3.0984L8.51613 3.01094L8.60354 2.93598L8.69095 2.81105L8.75338 2.64863L8.77836 2.5237L8.80333 2.08642L8.85328 1.81156L8.91571 1.59917L8.97815 1.43676L9.07804 1.22437L9.22789 0.98699L9.39022 0.787093L9.61498 0.56221L9.77732 0.437274L9.97711 0.312339L10.2144 0.187403L10.4266 0.112442L10.6639 0.0499742L10.9011 0.0124935L11.1259 0ZM11.1509 1.61167L10.9511 1.63665L10.8012 1.69912L10.6889 1.77408L10.589 1.86154L10.5016 1.98647L10.4391 2.1364L10.4142 2.26133L10.3892 2.67362L10.3517 2.911L10.2768 3.19835L10.1644 3.47321L10.0395 3.69809L9.91467 3.873L9.81478 3.99793L9.77732 4.03542V4.0604H9.75234L9.67742 4.14786L9.65244 4.16035V4.18534L9.6025 4.21032L9.46514 4.32277L9.27783 4.4477L9.05307 4.57264L8.79084 4.67259L8.57856 4.73505L8.30385 4.78503L8.15401 4.79752H7.89178L7.66701 4.77253L7.3923 4.71007L7.16753 4.63511L6.85536 4.48518L6.63059 4.33526L6.49324 4.22282L6.45578 4.18534H6.4308V4.16035L6.3309 4.0729L6.21852 3.97295L6.01873 3.873L5.91883 3.84801H5.64412L5.48179 3.89799L5.33195 3.98544L5.23205 4.0729L5.16961 4.13536V4.16035L5.11967 4.18534V4.21032L5.06972 4.23531V4.2603L5.01977 4.28529V4.31027L4.96982 4.33526V4.36025L4.93236 4.37274L4.86993 4.4477L4.78252 4.52266L4.72008 4.59762L4.63267 4.67259L4.57024 4.74755L3.99584 5.32225L3.92092 5.44719L3.85848 5.59711L3.84599 5.67207V5.90945L3.89594 6.07186L3.95838 6.1968L4.07076 6.33423L4.19563 6.45916L4.33299 6.63407L4.44537 6.79649L4.54527 6.9714L4.65765 7.23376L4.73257 7.48363L4.78252 7.746L4.795 7.88343V8.19577L4.77003 8.42065L4.7076 8.69551L4.62019 8.94538L4.49532 9.20774L4.34547 9.44512L4.20812 9.60754L4.08325 9.74497L4.05827 9.75746V9.78245L4.00832 9.80743L3.85848 9.93237L3.67118 10.0573L3.52133 10.1448L3.28408 10.2447L3.05931 10.3197L2.74714 10.3821L2.23517 10.4196L2.08533 10.4571L1.923 10.5446L1.81061 10.6445L1.69823 10.8069L1.64828 10.9319L1.62331 11.0568L1.61082 11.619V12.6435L1.62331 12.9683L1.67326 13.1557L1.76067 13.3056L1.83559 13.3931L1.99792 13.5055L2.14776 13.568L2.27263 13.593L2.70968 13.618L2.99688 13.6679L3.20916 13.7304L3.44641 13.8304L3.62123 13.9178L3.84599 14.0677L3.98335 14.1802L4.10822 14.2926L4.19563 14.3801L4.30801 14.5175L4.45786 14.7424L4.54527 14.8923L4.65765 15.1547L4.73257 15.4045L4.78252 15.6544L4.795 15.7793V16.1417L4.77003 16.3541L4.69511 16.6664L4.6077 16.9038L4.5078 17.1037L4.40791 17.2786L4.29553 17.4285L4.18314 17.5659L4.05827 17.6909V17.7158L4.02081 17.7283L3.90843 17.9032L3.85848 18.0407L3.84599 18.1156V18.3405L3.88345 18.478L3.97086 18.6529L4.08325 18.7778L4.17066 18.8777L4.24558 18.9402L4.39542 19.0901L4.45786 19.1651L4.54527 19.2401L4.62019 19.3275L4.69511 19.39L4.75754 19.4649L4.84495 19.5399L4.90739 19.6149L4.9948 19.6898L5.05723 19.7648L5.14464 19.8398L5.31946 20.0147L5.4693 20.1021L5.61915 20.1521L5.71904 20.1646H5.86889L6.06868 20.1146L6.21852 20.0272L6.34339 19.9147L6.38085 19.8897V19.8647L6.4308 19.8398L6.56816 19.7148L6.74298 19.5899L6.93028 19.4774L7.14256 19.3775L7.44225 19.2775L7.6795 19.2276L7.95421 19.2026H8.14152L8.40375 19.2276L8.641 19.2775L8.94069 19.3775L9.15297 19.4774L9.37773 19.6149L9.54006 19.7398L9.67742 19.8647H9.70239L9.72737 19.9147L9.83975 20.0272L9.96462 20.1896L10.127 20.4519L10.2393 20.7018L10.3143 20.9267L10.3642 21.1516L10.3892 21.339L10.4142 21.7638L10.4641 21.9512L10.5515 22.1011L10.6264 22.1885L10.7888 22.301L10.9386 22.3634L11.051 22.3884H12.949L13.1363 22.3385L13.2737 22.2635L13.3985 22.1511L13.4984 22.0136L13.5609 21.8637L13.5858 21.7513L13.6108 21.3015L13.6608 21.0141L13.7357 20.7643L13.8606 20.4769L14.0229 20.2146L14.1602 20.0396L14.2726 19.9147L14.385 19.8023L14.5099 19.7023L14.6847 19.5774L14.8845 19.4649L15.0718 19.3775L15.3715 19.2775L15.6337 19.2276L15.7461 19.2151H16.1707L16.4329 19.2526L16.6327 19.3025L16.9074 19.4025L17.1946 19.5524L17.4069 19.7023L17.5817 19.8522L17.6691 19.9397H17.6941L17.7066 19.9772L17.8314 20.0646L17.9938 20.1396L18.1311 20.1646H18.3059L18.4558 20.1271L18.6556 20.0272L18.8179 19.8772L19.9917 18.7028L20.0916 18.5404L20.1415 18.403L20.154 18.3155V18.1281L20.1165 17.9782L20.0166 17.7783L19.7419 17.4785L19.5921 17.2786L19.4547 17.0412L19.3798 16.8788L19.3174 16.7164L19.2425 16.429L19.205 16.1916V15.7419L19.2549 15.442L19.3548 15.1172L19.4547 14.8923L19.5921 14.6549L19.7544 14.4425L19.8668 14.3176L19.9917 14.1927L20.204 14.0303L20.3788 13.9178L20.5661 13.8179L20.8283 13.7179L21.0531 13.6554L21.2903 13.618L21.7274 13.593L21.9272 13.543L22.0645 13.468L22.1894 13.3556L22.2893 13.2182L22.3517 13.0682L22.3767 12.9558V11.0568L22.3392 10.8944L22.2643 10.7444L22.1769 10.632L22.077 10.5446L21.8772 10.4446L21.7773 10.4196L21.6649 10.4071L21.3528 10.3946L21.0905 10.3571L20.8533 10.2947L20.616 10.2072L20.4162 10.1073L20.2289 9.99484L20.0666 9.8699L19.9417 9.75746L19.8668 9.69499L19.7794 9.59504L19.6296 9.40764L19.4922 9.18276L19.3548 8.8954L19.2799 8.65803L19.23 8.44564L19.205 8.27073V7.82096L19.2549 7.52111L19.3424 7.22127L19.4547 6.9714L19.5796 6.74651L19.7294 6.54662L19.8418 6.42168V6.3967H19.8668V6.37171H19.8918L19.9792 6.27176L20.0666 6.14682L20.129 6.0094L20.154 5.87197V5.68456L20.1041 5.49716L20.0291 5.35973L19.9292 5.2348L18.7305 4.03542L18.6056 3.94796L18.4807 3.88549L18.3434 3.84801H18.0687L17.8814 3.91048L17.719 4.02292L17.5442 4.19783L17.3694 4.33526L17.1821 4.4602L16.9199 4.59762L16.6452 4.69757L16.3704 4.76004L16.2206 4.78503L16.0708 4.79752H15.821L15.5838 4.77253L15.2716 4.69757L15.0343 4.61012L14.7971 4.49768L14.6223 4.38523L14.4724 4.27279L14.3101 4.12287L14.2726 4.11038L14.2477 4.0604L14.1103 3.91048L13.9854 3.73557L13.873 3.54817L13.7607 3.31079L13.6608 2.98596L13.6108 2.69861L13.5858 2.26133L13.5484 2.09892L13.4735 1.94899L13.3861 1.83655L13.2862 1.7491L13.0864 1.64915L12.974 1.62416L12.8616 1.61167H11.1509Z" fill="white"/>
<path d="M11.7745 6.39661H12.1865L12.5487 6.42159L12.9358 6.47157L13.2979 6.54653L13.6225 6.63398L14.0221 6.77141L14.3093 6.89635L14.6215 7.04627L14.9087 7.20869L15.2084 7.40858L15.4082 7.55851L15.583 7.69594L15.7079 7.80838L15.8078 7.89583L15.8952 7.97079V7.99578L15.9451 8.02077L16.1324 8.22066L16.2573 8.35809L16.3947 8.533L16.5695 8.75789L16.7568 9.04524L16.8692 9.23264L16.994 9.45753L17.1564 9.80734L17.2812 10.1322L17.3686 10.3945L17.4561 10.7319L17.5185 11.0317L17.5684 11.369L17.5934 11.6814V12.356L17.5684 12.6434L17.5185 12.9932L17.4436 13.343L17.3187 13.7803L17.1813 14.1426L17.044 14.4549L16.9191 14.6923L16.8192 14.8672L16.6444 15.1421L16.5195 15.317L16.4196 15.4544L16.2698 15.6293L16.1574 15.7668L16.0076 15.9167L15.9826 15.9542H15.9576L15.9326 16.0041L15.7328 16.1915L15.558 16.3415L15.3458 16.5039L15.1335 16.6538L14.8962 16.8037L14.5466 17.0036L14.2968 17.1161L14.1345 17.191L13.7599 17.3285L13.3229 17.4534L12.8858 17.5408L12.4737 17.5908L12.2989 17.6033H11.6995L11.275 17.5658L10.9004 17.5034L10.5258 17.4159L10.1262 17.291L9.75158 17.1411L9.38946 16.9661L9.11474 16.8162L8.70267 16.5414L8.47791 16.3665L8.30309 16.2165L8.20319 16.1291L8.11578 16.0541L7.99091 15.9292V15.9042H7.96594L7.87853 15.8042L7.74117 15.6543L7.62879 15.5169L7.45397 15.292L7.25418 14.9922L7.1418 14.8048L6.99195 14.5299L6.8546 14.2426L6.69227 13.8178L6.59237 13.4929L6.49247 13.0682L6.44253 12.7683L6.40507 12.4185L6.39258 12.2186V11.7938L6.41755 11.444L6.4675 11.0692L6.54242 10.7069L6.61734 10.432L6.76719 9.98225L6.90454 9.65742L7.07936 9.3076L7.24169 9.03274L7.41651 8.77038L7.52889 8.62046L7.6163 8.50802L7.72869 8.37059L7.82858 8.24565H7.85356L7.87853 8.19568L8.21568 7.85835L8.35304 7.74591L8.52785 7.59599L8.76511 7.42108L8.95241 7.29614L9.11474 7.19619L9.32702 7.07126L9.61422 6.92134L9.96386 6.77141L10.4134 6.62149L10.6881 6.54653L11.1376 6.45907L11.4248 6.42159L11.7745 6.39661ZM11.9493 8.00827L11.6621 8.02077L11.3499 8.05825L11.0003 8.13321L10.6382 8.24565L10.3634 8.35809L10.1512 8.45804L9.85148 8.63295L9.72661 8.72041L9.57676 8.83285L9.40194 8.97028L9.32702 9.03274V9.05773L9.27707 9.08272L9.05231 9.3076L8.9649 9.40755L8.80257 9.60745L8.55283 9.98225L8.47791 10.1197L8.36552 10.3571L8.30309 10.4945L8.19071 10.8068L8.1033 11.1317L8.05335 11.3815L8.01589 11.7314L8.0034 12.0687L8.02837 12.406L8.06584 12.6934L8.14076 13.0307L8.21568 13.2806L8.32806 13.5804L8.47791 13.8927L8.5778 14.0676L8.66521 14.2051L8.81505 14.4175L8.98987 14.6299L9.16469 14.8173L9.31453 14.9672L9.45189 15.0796L9.6392 15.2295L9.86396 15.3795L10.0513 15.4919L10.2885 15.6168L10.6506 15.7668L10.9753 15.8667L11.3374 15.9417L11.7745 15.9916H12.249L12.5861 15.9542L12.9108 15.8917L13.223 15.8042L13.5601 15.6793L13.8973 15.5169L14.1095 15.392L14.2594 15.292L14.4592 15.1421L14.584 15.0421L14.7464 14.8922L14.8588 14.7923L14.9462 14.6923L15.096 14.5299L15.2708 14.2925L15.4082 14.0801L15.5206 13.8802L15.6205 13.6803L15.7328 13.418L15.8327 13.1181L15.9077 12.8183L15.9576 12.506L15.9826 12.2561V11.7938L15.9451 11.4315L15.8952 11.1442L15.8203 10.8568L15.7204 10.557L15.5705 10.2196L15.4207 9.94477L15.2833 9.73238L15.146 9.54498L15.0086 9.38256L14.8962 9.25763L14.659 9.02025L14.5216 8.90781L14.2968 8.7329L14.0596 8.58298L13.8348 8.45804L13.5227 8.30812L13.173 8.18318L12.8234 8.09573L12.5362 8.04575L12.2989 8.02077L11.9493 8.00827Z" fill="white"/>
</svg>
