<svg width="33" height="33" viewBox="0 0 33 33" fill="none" xmlns="http://www.w3.org/2000/svg">
<g clip-path="url(#clip0_403_482)">
<path d="M30.5 24.5H26.5V20.5H24.5V24.5H20.5V26.5H24.5V30.5H26.5V26.5H30.5V24.5Z" fill="#979D9D"/>
<path d="M16.5 28.5001H8.5V4.5001H16.5V10.5001C16.5015 11.0301 16.7127 11.5379 17.0875 11.9126C17.4622 12.2874 17.97 12.4986 18.5 12.5001H24.5V16.5001H26.5V10.5001C26.5036 10.3687 26.4786 10.238 26.4268 10.1172C26.375 9.99633 26.2976 9.88815 26.2 9.8001L19.2 2.8001C19.112 2.70243 19.0038 2.62502 18.8829 2.57323C18.7621 2.52143 18.6314 2.49648 18.5 2.5001H8.5C7.97004 2.50163 7.46222 2.71284 7.08748 3.08758C6.71274 3.46232 6.50153 3.97014 6.5 4.5001V28.5001C6.50153 29.0301 6.71274 29.5379 7.08748 29.9126C7.46222 30.2874 7.97004 30.4986 8.5 30.5001H16.5V28.5001ZM18.5 4.9001L24.1 10.5001H18.5V4.9001Z" fill="#979D9D"/>
</g>
<defs>
<clipPath id="clip0_403_482">
<rect width="32" height="32" fill="white" transform="translate(0.5 0.5)"/>
</clipPath>
</defs>
</svg>
