<svg width="24" height="25" viewBox="0 0 24 25" fill="none" xmlns="http://www.w3.org/2000/svg">
<path d="M2.25262 2.92752C1.02166 3.1703 0.324989 3.77257 0.0787979 4.80903C0.0107024 5.10782 0.000226169 6.1863 0.000226169 13.5489C0.000226169 22.8444 -0.0207263 22.3075 0.340704 22.9611C0.65499 23.5307 1.22594 23.9228 2.04309 24.1329C2.35738 24.2123 2.635 24.217 5.57882 24.217C8.51216 24.217 8.80026 24.2123 9.10931 24.1329C10.136 23.8715 10.7488 23.3299 11.0369 22.4195C11.126 22.1301 11.1312 21.7192 11.1312 13.5489C11.1312 5.37861 11.126 4.96776 11.0369 4.6783C10.7488 3.77723 10.1517 3.23566 9.1355 2.96954C8.85788 2.89484 8.51216 2.8855 5.70977 2.87617C3.17452 2.86683 2.53024 2.87617 2.25262 2.92752ZM8.93121 4.49155C9.14074 4.58493 9.21931 4.65496 9.32407 4.84171L9.45502 5.07514V13.5489V22.0227L9.32407 22.2561C9.21931 22.4429 9.14074 22.5129 8.93121 22.6063L8.6693 22.723L5.68882 22.737C3.06976 22.7463 2.6769 22.7417 2.42023 22.6763C2.06928 22.5829 1.81785 22.3775 1.73404 22.116C1.65547 21.8593 1.65547 5.24789 1.73404 4.99111C1.81261 4.73433 2.02738 4.54291 2.35738 4.44019C2.62976 4.35616 2.80786 4.35149 5.65739 4.3655L8.6693 4.37483L8.93121 4.49155Z" fill="white"/>
<path d="M15.3219 2.89018C14.0805 3.04891 13.2948 3.64184 12.9543 4.6643C12.8705 4.91174 12.86 5.34593 12.8443 9.85594C12.8286 15.3744 12.8233 15.323 13.1795 15.9673C13.5148 16.5836 14.0752 16.9618 14.9553 17.1719C15.2957 17.2559 15.5524 17.2606 18.3862 17.2606C21.1572 17.2606 21.4872 17.2512 21.8538 17.1765C22.9853 16.9384 23.6767 16.3128 23.9072 15.3137C24.0277 14.7861 24.0329 5.3366 23.9124 4.80903C23.6924 3.86127 23.0534 3.25434 21.9743 2.96954C21.6915 2.89484 21.3719 2.88551 18.5696 2.87617C16.8724 2.8715 15.411 2.88084 15.3219 2.89018ZM21.7596 4.49155C22.0581 4.62695 22.1996 4.77168 22.2624 5.03313C22.341 5.31792 22.3305 14.8562 22.2572 15.1223C22.2205 15.2483 22.1262 15.3931 22.0267 15.4818C21.7124 15.7619 21.6548 15.7666 18.3862 15.7666C15.6519 15.7666 15.4057 15.7619 15.1805 15.6825C14.8505 15.5705 14.6357 15.3464 14.5676 15.0336C14.5257 14.8562 14.51 13.3435 14.5205 9.93064L14.5362 5.07515L14.6514 4.85572C14.7091 4.739 14.8243 4.6036 14.9029 4.55692C15.2329 4.3655 15.4005 4.35616 18.5172 4.3655L21.5029 4.37484L21.7596 4.49155Z" fill="white"/>
<path d="M3.24763 0.218208C2.24939 0.215462 1.33269 0.217561 0.728851 0.221656C0.314299 0.224467 0 0.547005 0 0.961567V0.961567C0 1.40357 0.354306 1.76133 0.79631 1.75978C1.30592 1.75799 2.04876 1.75445 3.24763 1.75804H10.1436C10.5759 1.75804 10.9263 1.40759 10.9263 0.975281V0.975281C10.9263 0.558791 10.6011 0.225366 10.1846 0.223318C8.5288 0.215174 4.65227 0.222888 3.24763 0.218208Z" fill="white"/>
<path d="M16.1607 0.218208C15.1625 0.215462 14.2458 0.217561 13.6419 0.221656C13.2274 0.224467 12.9131 0.547005 12.9131 0.961567V0.961567C12.9131 1.40357 13.2674 1.76133 13.7094 1.75978C14.219 1.75799 14.9618 1.75445 16.1607 1.75804H23.0566C23.489 1.75804 23.8394 1.40759 23.8394 0.975281V0.975281C23.8394 0.558791 23.5142 0.225366 23.0977 0.223318C21.4419 0.215174 17.5654 0.222888 16.1607 0.218208Z" fill="white"/>
</svg>
