<svg width="44" height="44" viewBox="0 0 44 44" fill="none" xmlns="http://www.w3.org/2000/svg">
<circle cx="22" cy="22" r="22" fill="#004590"/>
<g clip-path="url(#clip0_328_3098)">
<path d="M31.9368 15.07C31.5188 14.6505 31.022 14.3176 30.475 14.0905C29.928 13.8634 29.3416 13.7465 28.7493 13.7465C28.1571 13.7465 27.5706 13.8634 27.0236 14.0905C26.4767 14.3176 25.9799 14.6505 25.5618 15.07L26.6268 16.135C26.9061 15.8558 27.2375 15.6343 27.6024 15.4832C27.9672 15.3321 28.3582 15.2543 28.7531 15.2543C29.148 15.2543 29.539 15.3321 29.9038 15.4832C30.2686 15.6343 30.6001 15.8558 30.8793 16.135C31.1586 16.4142 31.38 16.7457 31.5312 17.1105C31.6823 17.4754 31.7601 17.8664 31.7601 18.2613C31.7601 18.6561 31.6823 19.0472 31.5312 19.412C31.38 19.7768 31.1586 20.1083 30.8793 20.3875L24.8793 26.3875C24.3164 26.9514 23.5525 27.2686 22.7557 27.2693C21.9589 27.27 21.1945 26.9542 20.6306 26.3913C20.0667 25.8283 19.7495 25.0645 19.7488 24.2677C19.7481 23.4709 20.0639 22.7064 20.6268 22.1425L21.6843 21.0775L20.6268 20.0125L19.5618 21.0775C19.1423 21.4956 18.8094 21.9923 18.5823 22.5393C18.3552 23.0863 18.2383 23.6727 18.2383 24.265C18.2383 24.8573 18.3552 25.4437 18.5823 25.9907C18.8094 26.5377 19.1423 27.0344 19.5618 27.4525C20.4104 28.2903 21.5569 28.7569 22.7493 28.75C23.3439 28.7525 23.933 28.6371 24.4827 28.4105C25.0324 28.1839 25.5317 27.8507 25.9518 27.43L31.9518 21.43C32.7925 20.5843 33.2632 19.4394 33.2604 18.2469C33.2576 17.0544 32.7815 15.9118 31.9368 15.07Z" fill="#E8E8E8"/>
<path d="M13.1433 28.615C12.8633 28.3362 12.641 28.0049 12.4894 27.64C12.3378 27.2751 12.2597 26.8839 12.2597 26.4887C12.2597 26.0936 12.3378 25.7024 12.4894 25.3375C12.641 24.9726 12.8633 24.6412 13.1433 24.3625L19.1433 18.3625C19.4221 18.0824 19.7534 17.8602 20.1183 17.7086C20.4832 17.5569 20.8744 17.4789 21.2696 17.4789C21.6647 17.4789 22.056 17.5569 22.4209 17.7086C22.7857 17.8602 23.1171 18.0824 23.3958 18.3625C23.6741 18.6434 23.8932 18.9774 24.04 19.3446C24.1869 19.7117 24.2586 20.1046 24.2508 20.5C24.2531 20.8966 24.1767 21.2897 24.0261 21.6566C23.8755 22.0235 23.6536 22.3569 23.3733 22.6375L21.7833 24.25L22.8483 25.315L24.4383 23.725C25.2847 22.8786 25.7602 21.7307 25.7602 20.5337C25.7602 19.3368 25.2847 18.1889 24.4383 17.3425C23.592 16.4961 22.444 16.0206 21.2471 16.0206C20.0501 16.0206 18.9022 16.4961 18.0558 17.3425L12.0558 23.3425C11.6352 23.7607 11.3014 24.2579 11.0736 24.8056C10.8458 25.3533 10.7285 25.9406 10.7285 26.5337C10.7285 27.1269 10.8458 27.7142 11.0736 28.2619C11.3014 28.8096 11.6352 29.3068 12.0558 29.725C12.9099 30.5563 14.059 31.0149 15.2508 31C16.4532 31.0011 17.6071 30.5266 18.4608 29.68L17.3958 28.615C17.1171 28.895 16.7857 29.1173 16.4209 29.2689C16.056 29.4205 15.6647 29.4986 15.2696 29.4986C14.8744 29.4986 14.4832 29.4205 14.1183 29.2689C13.7534 29.1173 13.4221 28.895 13.1433 28.615Z" fill="#E8E8E8"/>
</g>
<defs>
<clipPath id="clip0_328_3098">
<rect width="24" height="24" fill="white" transform="translate(10 10)"/>
</clipPath>
</defs>
</svg>
