<svg width="24" height="24" viewBox="0 0 24 24" fill="none" xmlns="http://www.w3.org/2000/svg">
<path d="M11.5346 0.0271474C11.441 0.0531563 11.2329 0.136385 11.0665 0.214412C10.6609 0.412079 9.90163 1.18194 9.34518 1.96741C8.88234 2.62284 8.4299 3.07019 8.18028 3.12221C7.89946 3.17943 7.2234 3.15342 6.81257 3.07539C5.16923 2.76328 4.17595 2.88292 3.5415 3.46552C2.89144 4.06373 2.74583 5.11449 3.06826 6.82067C3.14626 7.23161 3.17226 7.90785 3.11506 8.18874C3.06306 8.43843 2.61582 8.89098 1.96056 9.35394C1.11809 9.95215 0.405634 10.6648 0.176815 11.1382C0.0156013 11.4711 0 11.5439 0 11.9964C0 12.449 0.0156013 12.5218 0.176815 12.8547C0.405634 13.3281 1.11809 14.0407 1.96056 14.639C2.61582 15.1019 3.06306 15.5545 3.11506 15.8041C3.17226 16.1059 3.14626 16.7561 3.04745 17.3283C2.90184 18.1502 2.86024 18.8784 2.93304 19.3102C3.10466 20.2933 3.71311 20.8967 4.70119 21.0527C5.12243 21.1256 6.0429 21.0632 6.80737 20.9175C7.2234 20.8395 7.89946 20.8135 8.18028 20.8707C8.4299 20.9227 8.88234 21.3649 9.34518 22.0255C9.85482 22.7329 10.4789 23.4144 10.8429 23.6484C11.5346 24.0906 12.3354 24.1166 13.0167 23.7213C13.3755 23.5132 13.9372 22.9462 14.3792 22.3428C14.9772 21.5365 15.1645 21.3076 15.4349 21.0788C15.6845 20.8707 15.6897 20.8707 16.1889 20.8499C16.5166 20.8343 16.8494 20.8603 17.1302 20.9123C17.9623 21.0684 18.8048 21.1256 19.252 21.0579C20.2661 20.9019 20.8745 20.2985 21.041 19.2841C21.1138 18.8576 21.0514 17.9577 20.9005 17.1462C20.8485 16.8653 20.8225 16.5272 20.8381 16.2047C20.8589 15.7105 20.8589 15.7001 21.0566 15.4556C21.2594 15.2111 21.4726 15.0291 22.3099 14.4101C22.8819 13.9887 23.428 13.4581 23.6412 13.1252C23.844 12.8183 24 12.3242 24 11.9964C24 11.6687 23.844 11.1746 23.636 10.8521C23.4124 10.4983 22.7207 9.85851 22.0966 9.42156C21.4466 8.96381 20.9109 8.43323 20.8641 8.19915C20.8017 7.90785 20.8225 7.23682 20.9057 6.82067C21.0566 6.0352 21.1138 5.17171 21.0462 4.72956C20.8901 3.70481 20.2765 3.0962 19.2468 2.93494C18.81 2.86732 17.9519 2.92454 17.1614 3.07539C16.7506 3.15342 16.0745 3.17943 15.7937 3.12221C15.5441 3.07019 15.0917 2.62284 14.6288 1.96741C14.3896 1.6345 13.9736 1.13513 13.7031 0.859432C13.0739 0.224815 12.7203 0.0323492 12.1118 0.00634026C11.883 -0.00926508 11.6282 0.00634026 11.5346 0.0271474ZM12.1898 1.72293C12.403 1.83217 12.8607 2.35234 13.2923 2.97656C13.6875 3.55395 14.3116 4.18857 14.764 4.47467C15.2217 4.77117 16.3658 4.91162 17.1614 4.76597C18.4095 4.53709 19.1376 4.50588 19.3092 4.67754C19.434 4.80758 19.4184 5.63987 19.2728 6.46695C19.0648 7.64776 19.1532 8.67251 19.512 9.2343C19.7564 9.61403 20.4013 10.2799 20.7705 10.5243C21.2698 10.8625 21.8886 11.3514 22.0862 11.5751C22.3255 11.8352 22.3671 11.9912 22.2631 12.1941C22.1538 12.4074 21.6286 12.8703 21.0618 13.2553C20.4793 13.6558 19.8501 14.2592 19.5536 14.7014C19.1532 15.3048 19.0544 16.2879 19.278 17.5259C19.4236 18.353 19.434 19.1853 19.304 19.3154C19.174 19.4454 18.3471 19.435 17.5151 19.2841C16.2774 19.0657 15.2945 19.1645 14.6912 19.565C14.244 19.8615 13.6459 20.491 13.2403 21.0788C12.8451 21.6666 12.3562 22.2075 12.143 22.296C12.0182 22.348 11.9558 22.348 11.831 22.296C11.6178 22.2075 11.1289 21.6666 10.7337 21.0788C10.0992 20.1476 9.25677 19.4194 8.62752 19.2529C8.20108 19.1437 7.44182 19.1541 6.53694 19.2841C5.53326 19.435 4.8 19.4454 4.66999 19.3154C4.53478 19.1801 4.55038 18.353 4.70639 17.4843C4.8 16.9381 4.8208 16.6937 4.7948 16.1839C4.7844 15.8406 4.7428 15.44 4.70639 15.2996C4.55558 14.717 3.88992 13.9523 2.96425 13.2969C2.26219 12.7975 1.77855 12.3658 1.69014 12.1525C1.63814 12.0277 1.63814 11.9652 1.69014 11.8404C1.77855 11.6271 2.24659 11.2058 2.94865 10.7116C3.88992 10.0406 4.55558 9.28112 4.70639 8.69331C4.7428 8.54766 4.7844 8.15233 4.7948 7.80901C4.8208 7.30444 4.8 7.04955 4.70639 6.50857C4.55038 5.63467 4.53478 4.81279 4.66999 4.67754C4.8052 4.54229 5.68407 4.5579 6.47454 4.70355C7.55623 4.91162 8.61192 4.82839 9.16836 4.49548C9.6312 4.21978 10.1928 3.65279 10.6505 3.00257C11.1445 2.30032 11.7634 1.6449 11.9298 1.6449C11.9922 1.6449 12.1118 1.68131 12.1898 1.72293Z" fill="white"/>
<path d="M8.03976 7.08595C6.72405 7.43967 5.90758 8.80774 6.24041 10.0978C6.58884 11.4294 7.95135 12.2565 9.25666 11.9184C10.588 11.5699 11.4148 10.207 11.0768 8.91177C10.7284 7.56451 9.34507 6.73223 8.03976 7.08595ZM8.98624 8.74011C9.52188 8.96379 9.65189 9.66083 9.23586 10.077C8.89783 10.4151 8.41939 10.4151 8.08136 10.077C7.43651 9.43715 8.14897 8.38639 8.98624 8.74011Z" fill="white"/>
<path d="M14.9766 7.90777C14.7634 8.0066 7.95083 14.8469 7.87802 15.029C7.78962 15.2735 7.81562 15.5544 7.94563 15.7469C8.19525 16.1214 8.60088 16.2514 8.98572 16.085C9.07932 16.0434 10.6187 14.5452 12.6208 12.5374C15.6839 9.4579 16.0895 9.03655 16.1207 8.85969C16.2507 8.16786 15.5955 7.62687 14.9766 7.90777Z" fill="white"/>
<path d="M14.696 12.0796C13.3803 12.4333 12.5638 13.8014 12.8967 15.0914C13.2451 16.4231 14.6076 17.2502 15.9129 16.9121C17.2442 16.5635 18.0711 15.2007 17.7331 13.9054C17.3846 12.5582 16.0013 11.7259 14.696 12.0796ZM15.6425 13.7338C16.1781 13.9574 16.3081 14.6545 15.8921 15.0706C15.5541 15.4087 15.0756 15.4087 14.7376 15.0706C14.0928 14.4308 14.8052 13.38 15.6425 13.7338Z" fill="white"/>
</svg>
