<svg width="331" height="498" viewBox="0 0 331 498" fill="none" xmlns="http://www.w3.org/2000/svg">
<path fill-rule="evenodd" clip-rule="evenodd" d="M16.2343 190.103C10.9009 188.103 5.30098 182.503 2.36765 176.236C-0.699022 169.569 -0.832353 161.703 2.23431 155.303C4.90098 149.569 142.634 9.30264 151.034 3.70264C158.234 -1.09736 171.434 -1.23072 178.768 3.30261C186.501 8.10261 325.434 149.569 328.101 155.303C333.968 167.836 327.034 185.303 314.101 190.103C308.768 192.103 297.834 191.969 292.768 189.703C290.368 188.636 267.168 166.503 240.501 139.703L192.501 91.5693L191.834 377.836L191.617 471.112C191.583 485.696 179.751 497.5 165.168 497.5V497.5C150.584 497.5 138.752 485.696 138.718 471.112L138.501 377.836L137.834 91.5693L89.8343 139.703C63.1676 166.503 39.9676 188.636 37.5676 189.703C32.501 191.969 21.5676 192.103 16.2343 190.103Z" fill="black"/>
</svg>
