<svg width="100" height="100" viewBox="0 0 100 100" fill="none" xmlns="http://www.w3.org/2000/svg">
<g opacity="0.9">
<path d="M46.4761 0.0650024C46.1041 0.104134 44.9491 0.241081 43.9311 0.358467C35.5129 1.29756 26.8598 4.79959 19.6946 10.1602C17.3649 11.9015 13.0579 16.0687 11.1394 18.436C6.49961 24.1488 2.72122 31.8376 1.17463 38.783C0.215348 43.048 0 45.1414 0 50.0325C0 54.9236 0.215348 57.017 1.17463 61.282C2.72122 68.2274 6.49961 75.9358 11.1394 81.629C12.9405 83.8594 16.5035 87.381 18.7157 89.1418C24.3344 93.622 31.9303 97.3001 38.7431 98.8261C42.8348 99.7457 45.2819 100 50 100C58.3203 100 64.7024 98.5327 72.0243 94.9328C80.1879 90.9417 86.7071 85.2289 91.7972 77.6183C94.7925 73.1576 97.6703 66.4862 98.8254 61.282C99.7847 57.017 100 54.9236 100 50.0325C100 45.1414 99.7847 43.048 98.8254 38.783C97.2788 31.8376 93.5004 24.1292 88.8606 18.436C87.0595 16.2056 83.4965 12.684 81.2843 10.9232C74.4714 5.48434 66.0728 1.82581 57.4002 0.514984C54.9334 0.143265 48.1793 -0.130638 46.4761 0.0650024ZM53.426 15.3057C58.6922 16.4209 63.0579 20.0207 65.231 25.0292C66.1316 27.1421 66.4839 29.0008 66.4839 31.642C66.4644 36.2592 64.7612 40.1916 61.3743 43.4197C59.5732 45.161 57.6351 46.3544 55.4229 47.1174C45.3406 50.5803 34.6515 43.7719 33.5552 33.168C32.6938 24.814 38.2929 17.086 46.4957 15.3057C48.1598 14.9535 51.7228 14.9535 53.426 15.3057ZM63.8019 56.6453C68.8724 58.0539 72.6899 61.2429 74.8434 65.9188C76.8011 70.1251 76.899 74.1945 75.1175 76.7966C73.6492 78.9291 68.4221 82.4116 63.8019 84.3289C55.5403 87.7331 45.1057 87.8114 36.6875 84.5246C32.0869 82.7246 26.1159 78.8313 24.8042 76.777C23.2772 74.3706 23.1989 71.2208 24.5301 67.3079C26.5074 61.5559 31.7933 57.2322 37.9601 56.3127C38.6061 56.2149 44.3422 56.1562 50.6852 56.1757C50.7139 56.1758 50.7425 56.1759 50.771 56.176C61.9632 56.2149 62.2788 56.216 63.8019 56.6453Z" fill="#808080"/>
<path d="M63.8019 56.6453C68.8724 58.0539 72.6899 61.2429 74.8434 65.9188C76.8011 70.1251 76.899 74.1945 75.1175 76.7966C73.6492 78.9291 68.4221 82.4116 63.8019 84.3289C55.5403 87.7331 45.1057 87.8114 36.6875 84.5246C32.0869 82.7246 26.1159 78.8313 24.8042 76.777C23.2772 74.3706 23.1989 71.2208 24.5301 67.3079C26.5074 61.5559 31.7933 57.2322 37.9601 56.3127C38.6061 56.2149 44.3422 56.1562 50.6852 56.1757L50.771 56.176C61.9632 56.2149 62.2788 56.216 63.8019 56.6453Z" fill="#9A9999" fill-opacity="0.6"/>
<path d="M53.426 15.3057C58.6922 16.4209 63.0579 20.0207 65.231 25.0292C66.1316 27.1421 66.4839 29.0008 66.4839 31.642C66.4644 36.2592 64.7612 40.1916 61.3743 43.4197C59.5732 45.161 57.6351 46.3544 55.4229 47.1174C45.3406 50.5803 34.6515 43.7719 33.5552 33.168C32.6938 24.814 38.2929 17.086 46.4957 15.3057C48.1598 14.9535 51.7228 14.9535 53.426 15.3057Z" fill="#9A9999" fill-opacity="0.6"/>
</g>
</svg>
