<svg width="42" height="42" viewBox="0 0 42 42" fill="none" xmlns="http://www.w3.org/2000/svg">
<g clip-path="url(#clip0_328_2413)">
<rect width="42" height="42" rx="21" fill="url(#paint0_linear_328_2413)"/>
<path d="M24.5 25V29.5H12.5V11.5H20V10H12.5C12.1022 10 11.7206 10.158 11.4393 10.4393C11.158 10.7206 11 11.1022 11 11.5V29.5C11 29.8978 11.158 30.2794 11.4393 30.5607C11.7206 30.842 12.1022 31 12.5 31H24.5C24.8978 31 25.2794 30.842 25.5607 30.5607C25.842 30.2794 26 29.8978 26 29.5V25H24.5Z" fill="white"/>
<path d="M30.6643 12.8184L28.1877 10.3431C27.9632 10.1232 27.6615 10 27.3472 10C27.0329 10 26.7311 10.1232 26.5066 10.3431L16 20.8445V25H20.1501L30.6568 14.4986C30.8768 14.2743 31 13.9727 31 13.6585C31 13.3444 30.8768 13.0427 30.6568 12.8184H30.6643ZM19.5272 23.4998H17.5009V21.4745L24.5854 14.3861L26.6192 16.4189L19.5272 23.4998ZM27.6774 15.3612L25.6436 13.3285L27.3472 11.6257L29.3809 13.6585L27.6774 15.3612Z" fill="white"/>
</g>
<rect x="1" y="1" width="40" height="40" rx="20" stroke="white" stroke-width="2"/>
<defs>
<linearGradient id="paint0_linear_328_2413" x1="45.8571" y1="21" x2="0.428573" y2="21" gradientUnits="userSpaceOnUse">
<stop stop-color="#EDC245"/>
<stop offset="1" stop-color="#CB8642"/>
</linearGradient>
<clipPath id="clip0_328_2413">
<rect width="42" height="42" rx="21" fill="white"/>
</clipPath>
</defs>
</svg>
