<svg width="32" height="33" viewBox="0 0 32 33" fill="none" xmlns="http://www.w3.org/2000/svg">
<g clip-path="url(#clip0_328_336)">
<path d="M22 22.5V28.5H6V4.5H16V2.5H6C5.46957 2.5 4.96086 2.71071 4.58579 3.08579C4.21071 3.46086 4 3.96957 4 4.5V28.5C4 29.0304 4.21071 29.5391 4.58579 29.9142C4.96086 30.2893 5.46957 30.5 6 30.5H22C22.5304 30.5 23.0391 30.2893 23.4142 29.9142C23.7893 29.5391 24 29.0304 24 28.5V22.5H22Z" fill="#004590"/>
<path d="M29.54 6.26006L26.24 2.96006C25.9409 2.66689 25.5388 2.50269 25.12 2.50269C24.7012 2.50269 24.2991 2.66689 24 2.96006L10 16.9601V22.5001H15.53L29.53 8.50006C29.8232 8.20097 29.9874 7.79886 29.9874 7.38006C29.9874 6.96125 29.8232 6.55914 29.53 6.26006H29.54ZM14.7 20.5001H12V17.8001L21.44 8.35006L24.15 11.0601L14.7 20.5001ZM25.56 9.65006L22.85 6.94006L25.12 4.67006L27.83 7.38006L25.56 9.65006Z" fill="#004590"/>
</g>
<defs>
<clipPath id="clip0_328_336">
<rect width="32" height="32" fill="white" transform="translate(0 0.5)"/>
</clipPath>
</defs>
</svg>
