<svg width="14" height="8" viewBox="0 0 14 8" fill="none" xmlns="http://www.w3.org/2000/svg">
<path d="M13.9443 0.906432C13.8977 0.789129 13.8239 0.701152 13.5695 0.45055C13.1783 0.0666494 13.0852 0.0159959 12.7871 0.0133299C12.6284 0.0133299 12.5381 0.0266598 12.4588 0.0639834C12.3849 0.0986411 11.4876 0.951754 9.67381 2.71663L7.00103 5.31862L4.3255 2.71396C2.24636 0.687822 1.62536 0.0959752 1.52961 0.0559855C1.44754 0.0186618 1.34632 0 1.22868 0C0.946902 0 0.810117 0.0773133 0.432589 0.447884C0.167225 0.70915 0.107039 0.786463 0.0577965 0.91443C-0.0188033 1.10905 -0.0188033 1.26367 0.0550608 1.45829C0.109775 1.60758 0.249296 1.74621 3.31876 4.73744C6.86424 8.19521 6.63991 7.99793 7.00103 7.99793C7.36214 7.99793 7.13781 8.19521 10.6833 4.73744C13.7555 1.74355 13.8923 1.60758 13.947 1.45829C14.0181 1.26634 14.0181 1.09572 13.9443 0.906432Z" fill="#3F4141"/>
</svg>
