<svg width="20" height="20" viewBox="0 0 20 20" fill="none" xmlns="http://www.w3.org/2000/svg">
<g clip-path="url(#clip0_269_45)">
<path d="M18.7499 6.675L17.4999 2.925C17.4564 2.79563 17.3718 2.68406 17.2589 2.60732C17.1461 2.53057 17.0112 2.49288 16.8749 2.5H3.12492C2.98863 2.49288 2.85375 2.53057 2.7409 2.60732C2.62804 2.68406 2.5434 2.79563 2.49992 2.925L1.24992 6.675C1.24091 6.74136 1.24091 6.80863 1.24992 6.875V10.625C1.24992 10.7908 1.31577 10.9497 1.43298 11.0669C1.55019 11.1841 1.70916 11.25 1.87492 11.25H2.49992V17.5H3.74992V11.25H7.49992V17.5H17.4999V11.25H18.1249C18.2907 11.25 18.4496 11.1841 18.5669 11.0669C18.6841 10.9497 18.7499 10.7908 18.7499 10.625V6.875C18.7589 6.80863 18.7589 6.74136 18.7499 6.675ZM16.2499 16.25H8.74992V11.25H16.2499V16.25ZM17.4999 10H14.9999V7.5H13.7499V10H10.6249V7.5H9.37492V10H6.24992V7.5H4.99992V10H2.49992V6.975L3.57492 3.75H16.4249L17.4999 6.975V10Z" fill="white"/>
</g>
<defs>
<clipPath id="clip0_269_45">
<rect width="20" height="20" fill="white"/>
</clipPath>
</defs>
</svg>
