<svg width="110" height="107" viewBox="0 0 110 107" fill="none" xmlns="http://www.w3.org/2000/svg">
<g clip-path="url(#clip0_806_973)">
<path d="M103.123 35.7113L96.2481 15.6488C96.0089 14.9567 95.5434 14.3598 94.9227 13.9492C94.302 13.5386 93.5602 13.337 92.8106 13.375H17.1856C16.436 13.337 15.6942 13.5386 15.0735 13.9492C14.4528 14.3598 13.9873 14.9567 13.7481 15.6488L6.87308 35.7113C6.82356 36.0663 6.82356 36.4262 6.87308 36.7813V56.8438C6.87308 57.7306 7.23524 58.5811 7.8799 59.2082C8.52456 59.8352 9.3989 60.1875 10.3106 60.1875H13.7481V93.625H20.6231V60.1875H41.2481V93.625H96.2481V60.1875H99.6856C100.597 60.1875 101.472 59.8352 102.116 59.2082C102.761 58.5811 103.123 57.7306 103.123 56.8438V36.7813C103.173 36.4262 103.173 36.0663 103.123 35.7113ZM89.3731 86.9375H48.1231V60.1875H89.3731V86.9375ZM96.2481 53.5H82.4981V40.125H75.6231V53.5H58.4356V40.125H51.5606V53.5H34.3731V40.125H27.4981V53.5H13.7481V37.3163L19.6606 20.0625H90.3356L96.2481 37.3163V53.5Z" fill="url(#paint0_linear_806_973)"/>
</g>
<defs>
<linearGradient id="paint0_linear_806_973" x1="112.006" y1="53.4978" x2="7.81884" y2="53.4978" gradientUnits="userSpaceOnUse">
<stop stop-color="#EDC245"/>
<stop offset="1" stop-color="#CB8642"/>
</linearGradient>
<clipPath id="clip0_806_973">
<rect width="110" height="107" fill="white"/>
</clipPath>
</defs>
</svg>
