<svg width="103" height="103" viewBox="0 0 103 103" fill="none" xmlns="http://www.w3.org/2000/svg">
<g clip-path="url(#clip0_806_927)">
<path d="M99.7812 96.5625H93.3438V86.9062C93.3438 84.3453 92.3264 81.8891 90.5155 80.0782C88.7046 78.2674 86.2485 77.25 83.6875 77.25H70.8125C68.2515 77.25 65.7954 78.2674 63.9845 80.0782C62.1736 81.8891 61.1562 84.3453 61.1562 86.9062V96.5625H54.7188V86.9062C54.7188 82.6379 56.4143 78.5444 59.4325 75.5263C62.4507 72.5081 66.5442 70.8125 70.8125 70.8125H83.6875C87.9558 70.8125 92.0493 72.5081 95.0675 75.5263C98.0857 78.5444 99.7812 82.6379 99.7812 86.9062V96.5625Z" fill="url(#paint0_linear_806_927)"/>
<path d="M77.25 38.625C79.1598 38.625 81.0268 39.1913 82.6147 40.2524C84.2027 41.3134 85.4404 42.8215 86.1712 44.586C86.9021 46.3504 87.0933 48.292 86.7207 50.1651C86.3481 52.0382 85.4285 53.7588 84.078 55.1093C82.7276 56.4597 81.007 57.3794 79.1339 57.752C77.2607 58.1245 75.3192 57.9333 73.5547 57.2025C71.7903 56.4716 70.2822 55.2339 69.2211 53.646C68.1601 52.058 67.5938 50.1911 67.5938 48.2813C67.5938 45.7203 68.6111 43.2641 70.422 41.4532C72.2329 39.6424 74.689 38.625 77.25 38.625ZM77.25 32.1875C74.067 32.1875 70.9554 33.1314 68.3088 34.8998C65.6622 36.6682 63.5994 39.1817 62.3813 42.1224C61.1632 45.0632 60.8445 48.2991 61.4655 51.421C62.0865 54.5429 63.6193 57.4105 65.87 59.6613C68.1208 61.912 70.9884 63.4448 74.1103 64.0658C77.2322 64.6867 80.4681 64.368 83.4088 63.1499C86.3496 61.9318 88.8631 59.8691 90.6315 57.2225C92.3999 54.5759 93.3438 51.4643 93.3438 48.2813C93.3438 44.0129 91.6482 39.9194 88.63 36.9013C85.6118 33.8831 81.5183 32.1875 77.25 32.1875Z" fill="url(#paint1_linear_806_927)"/>
<path d="M48.2812 70.8125H41.8438V61.1562C41.8438 58.5953 40.8264 56.1391 39.0155 54.3282C37.2046 52.5174 34.7485 51.5 32.1875 51.5H19.3125C16.7515 51.5 14.2954 52.5174 12.4845 54.3282C10.6736 56.1391 9.65625 58.5953 9.65625 61.1562V70.8125H3.21875V61.1562C3.21875 56.8879 4.91434 52.7944 7.9325 49.7763C10.9507 46.7581 15.0442 45.0625 19.3125 45.0625H32.1875C36.4558 45.0625 40.5493 46.7581 43.5675 49.7763C46.5857 52.7944 48.2812 56.8879 48.2812 61.1562V70.8125Z" fill="url(#paint2_linear_806_927)"/>
<path d="M25.75 12.875C27.6598 12.875 29.5268 13.4413 31.1147 14.5024C32.7027 15.5634 33.9404 17.0715 34.6712 18.836C35.4021 20.6004 35.5933 22.542 35.2207 24.4151C34.8481 26.2882 33.9285 28.0088 32.578 29.3593C31.2276 30.7097 29.507 31.6294 27.6339 32.002C25.7607 32.3745 23.8192 32.1833 22.0547 31.4525C20.2903 30.7216 18.7822 29.4839 17.7211 27.896C16.6601 26.308 16.0938 24.4411 16.0938 22.5313C16.0938 19.9703 17.1111 17.5141 18.922 15.7033C20.7329 13.8924 23.189 12.875 25.75 12.875ZM25.75 6.4375C22.567 6.4375 19.4554 7.38138 16.8088 9.14979C14.1622 10.9182 12.0994 13.4317 10.8813 16.3724C9.66322 19.3132 9.34451 22.5491 9.96549 25.671C10.5865 28.7929 12.1193 31.6605 14.37 33.9113C16.6208 36.162 19.4884 37.6948 22.6103 38.3158C25.7322 38.9367 28.9681 38.618 31.9088 37.3999C34.8496 36.1818 37.3631 34.1191 39.1315 31.4725C40.8999 28.8259 41.8438 25.7143 41.8438 22.5313C41.8438 18.2629 40.1482 14.1694 37.13 11.1513C34.1118 8.13309 30.0183 6.4375 25.75 6.4375Z" fill="url(#paint3_linear_806_927)"/>
</g>
<defs>
<linearGradient id="paint0_linear_806_927" x1="103.92" y1="83.6875" x2="55.1786" y2="83.6875" gradientUnits="userSpaceOnUse">
<stop stop-color="#EDC245"/>
<stop offset="1" stop-color="#CB8642"/>
</linearGradient>
<linearGradient id="paint1_linear_806_927" x1="96.2998" y1="48.2813" x2="61.4847" y2="48.2813" gradientUnits="userSpaceOnUse">
<stop stop-color="#EDC245"/>
<stop offset="1" stop-color="#CB8642"/>
</linearGradient>
<linearGradient id="paint2_linear_806_927" x1="52.4196" y1="57.9375" x2="3.67857" y2="57.9375" gradientUnits="userSpaceOnUse">
<stop stop-color="#EDC245"/>
<stop offset="1" stop-color="#CB8642"/>
</linearGradient>
<linearGradient id="paint3_linear_806_927" x1="44.7998" y1="22.5313" x2="9.98469" y2="22.5313" gradientUnits="userSpaceOnUse">
<stop stop-color="#EDC245"/>
<stop offset="1" stop-color="#CB8642"/>
</linearGradient>
<clipPath id="clip0_806_927">
<rect width="103" height="103" fill="white"/>
</clipPath>
</defs>
</svg>
