<svg width="150" height="65" viewBox="0 0 150 65" fill="none" xmlns="http://www.w3.org/2000/svg">
<path d="M0 11.1636V53.8363H42.5186V11.1636H16.9811V19.751H33.9623V45.2489H8.55638V11.1636H0Z" fill="white"/>
<path d="M16.9805 28.2063H25.5369V36.7937H16.9805V28.2063Z" fill="white"/>
<path d="M62.6367 31.1154C61.107 31.1154 59.688 30.8657 58.3795 30.3663C57.0895 29.8669 55.9653 29.1641 55.007 28.2578C54.0671 27.3515 53.33 26.288 52.7955 25.0672C52.2795 23.8465 52.0215 22.5148 52.0215 21.0721C52.0215 19.6294 52.2795 18.2977 52.7955 17.077C53.33 15.8562 54.0763 14.7927 55.0346 13.8864C55.993 12.9801 57.1171 12.2773 58.4072 11.7779C59.6972 11.2785 61.0978 11.0288 62.609 11.0288C64.1386 11.0288 65.5393 11.2785 66.8109 11.7779C68.1009 12.2773 69.2159 12.9801 70.1558 13.8864C71.1141 14.7927 71.8605 15.8562 72.3949 17.077C72.9293 18.2792 73.1966 19.6109 73.1966 21.0721C73.1966 22.5148 72.9293 23.8557 72.3949 25.095C71.8605 26.3157 71.1141 27.3792 70.1558 28.2855C69.2159 29.1733 68.1009 29.8669 66.8109 30.3663C65.5393 30.8657 64.1479 31.1154 62.6367 31.1154ZM62.609 27.2867C63.4752 27.2867 64.2676 27.1388 64.9864 26.8428C65.7235 26.5469 66.3686 26.1215 66.9214 25.5666C67.4743 25.0117 67.8982 24.3551 68.193 23.5968C68.5063 22.8385 68.663 21.9969 68.663 21.0721C68.663 20.1473 68.5063 19.3057 68.193 18.5474C67.8982 17.7891 67.4743 17.1325 66.9214 16.5776C66.387 16.0227 65.7512 15.5973 65.014 15.3014C64.2769 15.0054 63.4752 14.8575 62.609 14.8575C61.7429 14.8575 60.9412 15.0054 60.204 15.3014C59.4853 15.5973 58.8495 16.0227 58.2966 16.5776C57.7437 17.1325 57.3106 17.7891 56.9973 18.5474C56.7025 19.3057 56.5551 20.1473 56.5551 21.0721C56.5551 21.9784 56.7025 22.82 56.9973 23.5968C57.3106 24.3551 57.7345 25.0117 58.269 25.5666C58.8218 26.1215 59.4669 26.5469 60.204 26.8428C60.9412 27.1388 61.7429 27.2867 62.609 27.2867ZM78.774 30.7825V11.3617H82.4783L93.8951 25.3447H92.0983V11.3617H96.5213V30.7825H92.8447L81.4002 16.7995H83.197V30.7825H78.774ZM107.429 19.1855H116.745V22.6812H107.429V19.1855ZM107.761 27.1758H118.293V30.7825H103.31V11.3617H117.934V14.9684H107.761V27.1758Z" fill="white"/>
<path d="M54.0957 54.1667V34.746H62.4441C64.6003 34.746 66.2681 35.1806 67.4476 36.0499C68.6455 36.9192 69.2445 38.1492 69.2445 39.7399C69.2445 40.7941 68.9957 41.6819 68.4981 42.4033C68.0189 43.1246 67.3555 43.6703 66.5077 44.0402C65.6784 44.4101 64.7662 44.5951 63.771 44.5951L64.2409 43.9292C65.4757 43.9292 66.5354 44.1234 67.42 44.5118C68.323 44.8817 69.0233 45.4459 69.5209 46.2042C70.0185 46.944 70.2673 47.8688 70.2673 48.9786C70.2673 50.6247 69.6591 51.9009 68.4428 52.8073C67.2449 53.7136 65.4296 54.1667 62.997 54.1667H54.0957ZM56.1413 52.4743H62.9693C64.6648 52.4743 65.9641 52.1876 66.8671 51.6143C67.7701 51.0224 68.2216 50.0883 68.2216 48.8121C68.2216 47.5544 67.7701 46.6389 66.8671 46.0655C65.9641 45.4736 64.6648 45.1777 62.9693 45.1777H55.9202V43.4853H62.3059C63.8539 43.4853 65.0518 43.1894 65.8996 42.5975C66.7657 42.0056 67.1988 41.1271 67.1988 39.9618C67.1988 38.7781 66.7657 37.8995 65.8996 37.3262C65.0518 36.7343 63.8539 36.4383 62.3059 36.4383H56.1413V52.4743ZM84.9434 54.3332C82.4739 54.3332 80.5297 53.6211 79.1106 52.1969C77.6916 50.7727 76.9821 48.6642 76.9821 45.8713V34.746H79.0277V45.788C79.0277 48.0815 79.5437 49.7739 80.5757 50.8652C81.6078 51.9564 83.0637 52.5021 84.9434 52.5021C86.8416 52.5021 88.3068 51.9564 89.3388 50.8652C90.3708 49.7739 90.8868 48.0815 90.8868 45.788V34.746H92.8772V45.8713C92.8772 48.6642 92.1677 50.7727 90.7486 52.1969C89.348 53.6211 87.4129 54.3332 84.9434 54.3332ZM101.253 54.1667V34.746H103.299V54.1667H101.253ZM111.807 54.1667V34.746H113.852V52.3911H124.689V54.1667H111.807ZM130.296 54.1667V34.746H138.175C140.239 34.746 142.045 35.1621 143.593 35.9944C145.159 36.8083 146.376 37.9458 147.242 39.4069C148.108 40.8681 148.541 42.5513 148.541 44.4563C148.541 46.3614 148.108 48.0445 147.242 49.5057C146.376 50.9669 145.159 52.1137 143.593 52.946C142.045 53.7598 140.239 54.1667 138.175 54.1667H130.296ZM132.342 52.3911H138.064C139.778 52.3911 141.262 52.0582 142.515 51.3923C143.786 50.708 144.772 49.7739 145.473 48.5902C146.173 47.3879 146.523 46.01 146.523 44.4563C146.523 42.8842 146.173 41.5062 145.473 40.3225C144.772 39.1388 143.786 38.214 142.515 37.5481C141.262 36.8638 139.778 36.5216 138.064 36.5216H132.342V52.3911Z" fill="white"/>
</svg>
